<svg xmlns:xlink="http://www.w3.org/1999/xlink" id="external-link-outline" xmlns="http://www.w3.org/2000/svg"
	width="1024" height="1024" viewBox="0 0 1024 1024" class="w-12 h-12 sm:w-16 sm:h-16 inline-block">
	<defs>
		<linearGradient id="bgGradient-external-link-outline" x1="15%" y1="15%" x2="85%" y2="85%"
			gradientUnits="userSpaceOnUse">
			<stop offset="0%" style="stop-color: rgb(255, 27, 107); stop-opacity: 1;"></stop>
			<stop offset="100%" style="stop-color: rgb(69, 202, 255); stop-opacity: 1;"></stop>
		</linearGradient>
		<linearGradient id="bgGradient-external-link-outline" x1="15%" y1="15%" x2="85%" y2="85%"
			gradientUnits="userSpaceOnUse">
			<stop offset="0%" style="stop-color: rgb(4, 98, 162); stop-opacity: 1;"></stop>
			<stop offset="100%" style="stop-color: rgb(4, 161, 162); stop-opacity: 1;"></stop>
		</linearGradient>
		<linearGradient id="bgGradient-external-link-outline" x1="15%" y1="15%" x2="85%" y2="85%"
			gradientUnits="userSpaceOnUse">
			<stop offset="0%" style="stop-color: rgb(255, 27, 107); stop-opacity: 1;"></stop>
			<stop offset="100%" style="stop-color: rgb(69, 202, 255); stop-opacity: 1;"></stop>
		</linearGradient>
	</defs>
	<path fill="url(&quot;#bgGradient-external-link-outline&quot;)"
		d="M844,1024H180C80.589,1024,0,943.411,0,844l0-664C0,80.589,80.589,0,180,0l664,0c99.411,0,180,80.589,180,180v664C1024,943.411,943.411,1024,844,1024z">
	</path><svg viewBox="0 0 24 24" width="610" aria-hidden="true" focusable="false" fill="#F4F4F4"
		xmlns="http://www.w3.org/2000/svg" filter="none" stroke="#000000" stroke-width="0px" x="207"
		class="StyledIconBase-ea9ulj-0 jZGNBW" stroke-opacity="0">
		<g data-name="Layer 2" stroke="#000000" fill="#F4F4F4" stroke-width="0px" stroke-opacity="0">
			<g data-name="external-link" stroke="#000000" fill="#F4F4F4" stroke-width="0px" stroke-opacity="0">
				<path
					d="M20 11a1 1 0 00-1 1v6a1 1 0 01-1 1H6a1 1 0 01-1-1V6a1 1 0 011-1h6a1 1 0 000-2H6a3 3 0 00-3 3v12a3 3 0 003 3h12a3 3 0 003-3v-6a1 1 0 00-1-1z"
					stroke="#000000" fill="#F4F4F4" stroke-width="0px" stroke-opacity="0"></path>
				<path
					d="M16 5h1.58l-6.29 6.28a1 1 0 000 1.42 1 1 0 001.42 0L19 6.42V8a1 1 0 001 1 1 1 0 001-1V4a1 1 0 00-1-1h-4a1 1 0 000 2z"
					stroke="#000000" fill="#F4F4F4" stroke-width="0px" stroke-opacity="0"></path>
			</g>
		</g>
	</svg>
</svg>